<mxfile host="app.diagrams.net" agent="Mozilla/5.0 (Macintosh; Intel Mac OS X 10_15_7) AppleWebKit/537.36 (KHTML, like Gecko) Chrome/128.0.0.0 Safari/537.36" version="26.0.16">
  <diagram name="Page-1" id="PV74KrC8nbFa2HOLDQHE">
    <mxGraphModel dx="2939" dy="747" grid="0" gridSize="10" guides="1" tooltips="1" connect="1" arrows="1" fold="1" page="1" pageScale="1" pageWidth="850" pageHeight="1100" math="0" shadow="0">
      <root>
        <mxCell id="0" />
        <mxCell id="1" parent="0" />
        <mxCell id="pl-_Bf_hWxf6yMwBalIJ-1" value="Passenger" style="shape=umlActor;verticalLabelPosition=bottom;verticalAlign=top;html=1;outlineConnect=0;" parent="1" vertex="1">
          <mxGeometry x="-949" y="486" width="30" height="60" as="geometry" />
        </mxCell>
        <mxCell id="pl-_Bf_hWxf6yMwBalIJ-2" value="Login/ Logout" style="ellipse;whiteSpace=wrap;html=1;" parent="1" vertex="1">
          <mxGeometry x="-777" y="147" width="120" height="80" as="geometry" />
        </mxCell>
        <mxCell id="pl-_Bf_hWxf6yMwBalIJ-5" value="Search Flights" style="ellipse;whiteSpace=wrap;html=1;" parent="1" vertex="1">
          <mxGeometry x="-777" y="288" width="120" height="80" as="geometry" />
        </mxCell>
        <mxCell id="pl-_Bf_hWxf6yMwBalIJ-6" value="Book Flights" style="ellipse;whiteSpace=wrap;html=1;" parent="1" vertex="1">
          <mxGeometry x="-777" y="429" width="120" height="80" as="geometry" />
        </mxCell>
        <mxCell id="pl-_Bf_hWxf6yMwBalIJ-9" value="Manage Booking" style="ellipse;whiteSpace=wrap;html=1;" parent="1" vertex="1">
          <mxGeometry x="-777" y="570" width="120" height="80" as="geometry" />
        </mxCell>
        <mxCell id="pl-_Bf_hWxf6yMwBalIJ-10" value="Check-in Online" style="ellipse;whiteSpace=wrap;html=1;" parent="1" vertex="1">
          <mxGeometry x="-777" y="714" width="120" height="80" as="geometry" />
        </mxCell>
        <mxCell id="pl-_Bf_hWxf6yMwBalIJ-11" value="View Boarding Pass" style="ellipse;whiteSpace=wrap;html=1;" parent="1" vertex="1">
          <mxGeometry x="-777" y="858" width="120" height="80" as="geometry" />
        </mxCell>
        <mxCell id="pl-_Bf_hWxf6yMwBalIJ-12" value="" style="endArrow=none;html=1;rounded=0;exitX=1;exitY=0.3333333333333333;exitDx=0;exitDy=0;exitPerimeter=0;entryX=0;entryY=0.5;entryDx=0;entryDy=0;" parent="1" source="pl-_Bf_hWxf6yMwBalIJ-1" target="pl-_Bf_hWxf6yMwBalIJ-2" edge="1">
          <mxGeometry width="50" height="50" relative="1" as="geometry">
            <mxPoint x="-439" y="465" as="sourcePoint" />
            <mxPoint x="-783" y="261" as="targetPoint" />
          </mxGeometry>
        </mxCell>
        <mxCell id="pl-_Bf_hWxf6yMwBalIJ-13" value="" style="endArrow=none;html=1;rounded=0;exitX=1;exitY=0.3333333333333333;exitDx=0;exitDy=0;exitPerimeter=0;" parent="1" source="pl-_Bf_hWxf6yMwBalIJ-1" target="pl-_Bf_hWxf6yMwBalIJ-5" edge="1">
          <mxGeometry width="50" height="50" relative="1" as="geometry">
            <mxPoint x="-439" y="465" as="sourcePoint" />
            <mxPoint x="-389" y="415" as="targetPoint" />
          </mxGeometry>
        </mxCell>
        <mxCell id="pl-_Bf_hWxf6yMwBalIJ-14" value="" style="endArrow=none;html=1;rounded=0;exitX=1;exitY=0.3333333333333333;exitDx=0;exitDy=0;exitPerimeter=0;entryX=0;entryY=0.5;entryDx=0;entryDy=0;" parent="1" source="pl-_Bf_hWxf6yMwBalIJ-1" target="pl-_Bf_hWxf6yMwBalIJ-6" edge="1">
          <mxGeometry width="50" height="50" relative="1" as="geometry">
            <mxPoint x="-439" y="465" as="sourcePoint" />
            <mxPoint x="-389" y="415" as="targetPoint" />
          </mxGeometry>
        </mxCell>
        <mxCell id="pl-_Bf_hWxf6yMwBalIJ-16" value="" style="endArrow=none;html=1;rounded=0;exitX=1;exitY=0.3333333333333333;exitDx=0;exitDy=0;exitPerimeter=0;entryX=0.075;entryY=0.275;entryDx=0;entryDy=0;entryPerimeter=0;" parent="1" source="pl-_Bf_hWxf6yMwBalIJ-1" target="pl-_Bf_hWxf6yMwBalIJ-9" edge="1">
          <mxGeometry width="50" height="50" relative="1" as="geometry">
            <mxPoint x="-439" y="465" as="sourcePoint" />
            <mxPoint x="-389" y="415" as="targetPoint" />
          </mxGeometry>
        </mxCell>
        <mxCell id="pl-_Bf_hWxf6yMwBalIJ-17" value="" style="endArrow=none;html=1;rounded=0;exitX=1;exitY=0.3333333333333333;exitDx=0;exitDy=0;exitPerimeter=0;entryX=0.017;entryY=0.35;entryDx=0;entryDy=0;entryPerimeter=0;" parent="1" source="pl-_Bf_hWxf6yMwBalIJ-1" target="pl-_Bf_hWxf6yMwBalIJ-10" edge="1">
          <mxGeometry width="50" height="50" relative="1" as="geometry">
            <mxPoint x="-439" y="465" as="sourcePoint" />
            <mxPoint x="-389" y="415" as="targetPoint" />
          </mxGeometry>
        </mxCell>
        <mxCell id="pl-_Bf_hWxf6yMwBalIJ-18" value="" style="endArrow=none;html=1;rounded=0;exitX=1;exitY=0.3333333333333333;exitDx=0;exitDy=0;exitPerimeter=0;entryX=0;entryY=0;entryDx=0;entryDy=0;" parent="1" source="pl-_Bf_hWxf6yMwBalIJ-1" target="pl-_Bf_hWxf6yMwBalIJ-11" edge="1">
          <mxGeometry width="50" height="50" relative="1" as="geometry">
            <mxPoint x="-436" y="760" as="sourcePoint" />
            <mxPoint x="-386" y="710" as="targetPoint" />
          </mxGeometry>
        </mxCell>
        <mxCell id="pl-_Bf_hWxf6yMwBalIJ-19" value="Verify Password" style="ellipse;whiteSpace=wrap;html=1;" parent="1" vertex="1">
          <mxGeometry x="-310" y="122" width="120" height="41" as="geometry" />
        </mxCell>
        <mxCell id="pl-_Bf_hWxf6yMwBalIJ-20" value="Display Login Error" style="ellipse;whiteSpace=wrap;html=1;" parent="1" vertex="1">
          <mxGeometry x="-310" y="174" width="120" height="41" as="geometry" />
        </mxCell>
        <mxCell id="9_dAPzWOalVGL8R8S1VZ-1" value="&lt;h1 style=&quot;margin-top: 0px;&quot;&gt;Airline Reservation App&lt;/h1&gt;" style="text;html=1;whiteSpace=wrap;overflow=hidden;rounded=0;" vertex="1" parent="1">
          <mxGeometry x="-564" y="28" width="278" height="53" as="geometry" />
        </mxCell>
        <mxCell id="9_dAPzWOalVGL8R8S1VZ-4" value="Select Flight Details" style="ellipse;whiteSpace=wrap;html=1;" vertex="1" parent="1">
          <mxGeometry x="-308" y="239" width="120" height="49" as="geometry" />
        </mxCell>
        <mxCell id="9_dAPzWOalVGL8R8S1VZ-5" value="Display Available Flights" style="ellipse;whiteSpace=wrap;html=1;" vertex="1" parent="1">
          <mxGeometry x="-310" y="304.5" width="120" height="47" as="geometry" />
        </mxCell>
        <mxCell id="9_dAPzWOalVGL8R8S1VZ-6" value="Select Desired Flight" style="ellipse;whiteSpace=wrap;html=1;" vertex="1" parent="1">
          <mxGeometry x="-452" y="392" width="120" height="47" as="geometry" />
        </mxCell>
        <mxCell id="9_dAPzWOalVGL8R8S1VZ-7" value="Add Passenger Information" style="ellipse;whiteSpace=wrap;html=1;" vertex="1" parent="1">
          <mxGeometry x="-452" y="456" width="120" height="47" as="geometry" />
        </mxCell>
        <mxCell id="9_dAPzWOalVGL8R8S1VZ-8" value="Make/ Validate Payment" style="ellipse;whiteSpace=wrap;html=1;" vertex="1" parent="1">
          <mxGeometry x="-223" y="459" width="120" height="44" as="geometry" />
        </mxCell>
        <mxCell id="9_dAPzWOalVGL8R8S1VZ-9" value="Bank" style="shape=umlActor;verticalLabelPosition=bottom;verticalAlign=top;html=1;outlineConnect=0;" vertex="1" parent="1">
          <mxGeometry x="48" y="422" width="30" height="60" as="geometry" />
        </mxCell>
        <mxCell id="9_dAPzWOalVGL8R8S1VZ-10" value="" style="endArrow=none;html=1;rounded=0;entryX=0;entryY=0.3333333333333333;entryDx=0;entryDy=0;entryPerimeter=0;" edge="1" parent="1" source="9_dAPzWOalVGL8R8S1VZ-8" target="9_dAPzWOalVGL8R8S1VZ-9">
          <mxGeometry width="50" height="50" relative="1" as="geometry">
            <mxPoint x="-450" y="387" as="sourcePoint" />
            <mxPoint x="-400" y="337" as="targetPoint" />
          </mxGeometry>
        </mxCell>
        <mxCell id="9_dAPzWOalVGL8R8S1VZ-11" value="View Booking" style="ellipse;whiteSpace=wrap;html=1;" vertex="1" parent="1">
          <mxGeometry x="-310" y="527" width="120" height="43" as="geometry" />
        </mxCell>
        <mxCell id="9_dAPzWOalVGL8R8S1VZ-12" value="Modify Booking" style="ellipse;whiteSpace=wrap;html=1;" vertex="1" parent="1">
          <mxGeometry x="-310" y="587" width="120" height="42" as="geometry" />
        </mxCell>
        <mxCell id="9_dAPzWOalVGL8R8S1VZ-13" value="Cancel Booking" style="ellipse;whiteSpace=wrap;html=1;" vertex="1" parent="1">
          <mxGeometry x="-310" y="646" width="120" height="39" as="geometry" />
        </mxCell>
        <mxCell id="9_dAPzWOalVGL8R8S1VZ-14" value="Show Booked Flights" style="ellipse;whiteSpace=wrap;html=1;" vertex="1" parent="1">
          <mxGeometry x="-308" y="714" width="120" height="41" as="geometry" />
        </mxCell>
        <mxCell id="9_dAPzWOalVGL8R8S1VZ-15" value="Receive Boarding pass" style="ellipse;whiteSpace=wrap;html=1;" vertex="1" parent="1">
          <mxGeometry x="-308" y="768" width="120" height="41" as="geometry" />
        </mxCell>
        <mxCell id="9_dAPzWOalVGL8R8S1VZ-16" value="Display Flight Information" style="ellipse;whiteSpace=wrap;html=1;" vertex="1" parent="1">
          <mxGeometry x="-310" y="878.5" width="120" height="39" as="geometry" />
        </mxCell>
        <mxCell id="9_dAPzWOalVGL8R8S1VZ-17" value="&amp;lt;&amp;lt; include &amp;gt;&amp;gt;" style="html=1;verticalAlign=bottom;endArrow=open;dashed=1;endSize=8;curved=0;rounded=0;exitX=1;exitY=0.5;exitDx=0;exitDy=0;entryX=0;entryY=0.5;entryDx=0;entryDy=0;" edge="1" parent="1" source="pl-_Bf_hWxf6yMwBalIJ-2" target="pl-_Bf_hWxf6yMwBalIJ-19">
          <mxGeometry relative="1" as="geometry">
            <mxPoint x="-385" y="540" as="sourcePoint" />
            <mxPoint x="-465" y="540" as="targetPoint" />
          </mxGeometry>
        </mxCell>
        <mxCell id="9_dAPzWOalVGL8R8S1VZ-18" value="&amp;lt;&amp;lt; extend &amp;gt;&amp;gt;" style="html=1;verticalAlign=bottom;endArrow=open;dashed=1;endSize=8;curved=0;rounded=0;exitX=0;exitY=0.5;exitDx=0;exitDy=0;entryX=0.992;entryY=0.713;entryDx=0;entryDy=0;entryPerimeter=0;" edge="1" parent="1" source="pl-_Bf_hWxf6yMwBalIJ-20" target="pl-_Bf_hWxf6yMwBalIJ-2">
          <mxGeometry relative="1" as="geometry">
            <mxPoint x="-496" y="335" as="sourcePoint" />
            <mxPoint x="-576" y="335" as="targetPoint" />
          </mxGeometry>
        </mxCell>
        <mxCell id="9_dAPzWOalVGL8R8S1VZ-19" value="&amp;lt;&amp;lt; include &amp;gt;&amp;gt;" style="html=1;verticalAlign=bottom;endArrow=open;dashed=1;endSize=8;curved=0;rounded=0;exitX=1;exitY=0.5;exitDx=0;exitDy=0;entryX=0;entryY=0.5;entryDx=0;entryDy=0;" edge="1" parent="1" source="pl-_Bf_hWxf6yMwBalIJ-5" target="9_dAPzWOalVGL8R8S1VZ-4">
          <mxGeometry relative="1" as="geometry">
            <mxPoint x="-385" y="357" as="sourcePoint" />
            <mxPoint x="-465" y="357" as="targetPoint" />
          </mxGeometry>
        </mxCell>
        <mxCell id="9_dAPzWOalVGL8R8S1VZ-20" value="&amp;lt;&amp;lt; extend &amp;gt;&amp;gt;" style="html=1;verticalAlign=bottom;endArrow=open;dashed=1;endSize=8;curved=0;rounded=0;exitX=0;exitY=0.5;exitDx=0;exitDy=0;entryX=0.992;entryY=0.663;entryDx=0;entryDy=0;entryPerimeter=0;" edge="1" parent="1" source="9_dAPzWOalVGL8R8S1VZ-5" target="pl-_Bf_hWxf6yMwBalIJ-5">
          <mxGeometry relative="1" as="geometry">
            <mxPoint x="-385" y="357" as="sourcePoint" />
            <mxPoint x="-465" y="357" as="targetPoint" />
          </mxGeometry>
        </mxCell>
        <mxCell id="9_dAPzWOalVGL8R8S1VZ-21" value="&amp;lt;&amp;lt; include &amp;gt;&amp;gt;" style="html=1;verticalAlign=bottom;endArrow=open;dashed=1;endSize=8;curved=0;rounded=0;exitX=0.958;exitY=0.313;exitDx=0;exitDy=0;exitPerimeter=0;entryX=0;entryY=0.5;entryDx=0;entryDy=0;" edge="1" parent="1" source="pl-_Bf_hWxf6yMwBalIJ-6" target="9_dAPzWOalVGL8R8S1VZ-6">
          <mxGeometry relative="1" as="geometry">
            <mxPoint x="-385" y="357" as="sourcePoint" />
            <mxPoint x="-465" y="357" as="targetPoint" />
          </mxGeometry>
        </mxCell>
        <mxCell id="9_dAPzWOalVGL8R8S1VZ-22" value="&amp;lt;&amp;lt; include &amp;gt;&amp;gt;" style="html=1;verticalAlign=bottom;endArrow=open;dashed=1;endSize=8;curved=0;rounded=0;exitX=0.975;exitY=0.638;exitDx=0;exitDy=0;exitPerimeter=0;entryX=0;entryY=0.5;entryDx=0;entryDy=0;" edge="1" parent="1" source="pl-_Bf_hWxf6yMwBalIJ-6" target="9_dAPzWOalVGL8R8S1VZ-7">
          <mxGeometry relative="1" as="geometry">
            <mxPoint x="-385" y="357" as="sourcePoint" />
            <mxPoint x="-465" y="357" as="targetPoint" />
          </mxGeometry>
        </mxCell>
        <mxCell id="9_dAPzWOalVGL8R8S1VZ-23" value="&amp;lt;&amp;lt; include &amp;gt;&amp;gt;" style="html=1;verticalAlign=bottom;endArrow=open;dashed=1;endSize=8;curved=0;rounded=0;exitX=1;exitY=0.5;exitDx=0;exitDy=0;entryX=0;entryY=0.5;entryDx=0;entryDy=0;" edge="1" parent="1" source="9_dAPzWOalVGL8R8S1VZ-7" target="9_dAPzWOalVGL8R8S1VZ-8">
          <mxGeometry relative="1" as="geometry">
            <mxPoint x="-385" y="357" as="sourcePoint" />
            <mxPoint x="-465" y="357" as="targetPoint" />
          </mxGeometry>
        </mxCell>
        <mxCell id="9_dAPzWOalVGL8R8S1VZ-24" value="&amp;lt;&amp;lt; include &amp;gt;&amp;gt;" style="html=1;verticalAlign=bottom;endArrow=open;dashed=1;endSize=8;curved=0;rounded=0;exitX=0.975;exitY=0.4;exitDx=0;exitDy=0;exitPerimeter=0;entryX=0;entryY=0.5;entryDx=0;entryDy=0;" edge="1" parent="1" source="pl-_Bf_hWxf6yMwBalIJ-9" target="9_dAPzWOalVGL8R8S1VZ-11">
          <mxGeometry relative="1" as="geometry">
            <mxPoint x="-386" y="640" as="sourcePoint" />
            <mxPoint x="-466" y="640" as="targetPoint" />
          </mxGeometry>
        </mxCell>
        <mxCell id="9_dAPzWOalVGL8R8S1VZ-25" value="&amp;lt;&amp;lt; include &amp;gt;&amp;gt;" style="html=1;verticalAlign=bottom;endArrow=open;dashed=1;endSize=8;curved=0;rounded=0;exitX=0.992;exitY=0.613;exitDx=0;exitDy=0;exitPerimeter=0;entryX=0;entryY=0.5;entryDx=0;entryDy=0;" edge="1" parent="1" source="pl-_Bf_hWxf6yMwBalIJ-9" target="9_dAPzWOalVGL8R8S1VZ-12">
          <mxGeometry relative="1" as="geometry">
            <mxPoint x="-386" y="640" as="sourcePoint" />
            <mxPoint x="-466" y="640" as="targetPoint" />
          </mxGeometry>
        </mxCell>
        <mxCell id="9_dAPzWOalVGL8R8S1VZ-30" value="Text" style="edgeLabel;html=1;align=center;verticalAlign=middle;resizable=0;points=[];" vertex="1" connectable="0" parent="9_dAPzWOalVGL8R8S1VZ-25">
          <mxGeometry x="0.0128" y="-24" relative="1" as="geometry">
            <mxPoint as="offset" />
          </mxGeometry>
        </mxCell>
        <mxCell id="9_dAPzWOalVGL8R8S1VZ-26" value="&amp;lt;&amp;lt; include &amp;gt;&amp;gt;" style="html=1;verticalAlign=bottom;endArrow=open;dashed=1;endSize=8;curved=0;rounded=0;exitX=0.95;exitY=0.775;exitDx=0;exitDy=0;exitPerimeter=0;entryX=0;entryY=0.5;entryDx=0;entryDy=0;" edge="1" parent="1" source="pl-_Bf_hWxf6yMwBalIJ-9" target="9_dAPzWOalVGL8R8S1VZ-13">
          <mxGeometry relative="1" as="geometry">
            <mxPoint x="-386" y="640" as="sourcePoint" />
            <mxPoint x="-466" y="640" as="targetPoint" />
          </mxGeometry>
        </mxCell>
        <mxCell id="9_dAPzWOalVGL8R8S1VZ-27" value="&amp;lt;&amp;lt; extend &amp;gt;&amp;gt;" style="html=1;verticalAlign=bottom;endArrow=open;dashed=1;endSize=8;curved=0;rounded=0;exitX=0;exitY=0.5;exitDx=0;exitDy=0;entryX=0.983;entryY=0.363;entryDx=0;entryDy=0;entryPerimeter=0;" edge="1" parent="1" source="9_dAPzWOalVGL8R8S1VZ-14" target="pl-_Bf_hWxf6yMwBalIJ-10">
          <mxGeometry relative="1" as="geometry">
            <mxPoint x="-386" y="640" as="sourcePoint" />
            <mxPoint x="-466" y="640" as="targetPoint" />
          </mxGeometry>
        </mxCell>
        <mxCell id="9_dAPzWOalVGL8R8S1VZ-28" value="&amp;lt;&amp;lt; extend &amp;gt;&amp;gt;" style="html=1;verticalAlign=bottom;endArrow=open;dashed=1;endSize=8;curved=0;rounded=0;exitX=0;exitY=0.5;exitDx=0;exitDy=0;entryX=0.975;entryY=0.625;entryDx=0;entryDy=0;entryPerimeter=0;" edge="1" parent="1" source="9_dAPzWOalVGL8R8S1VZ-15" target="pl-_Bf_hWxf6yMwBalIJ-10">
          <mxGeometry relative="1" as="geometry">
            <mxPoint x="-386" y="640" as="sourcePoint" />
            <mxPoint x="-466" y="640" as="targetPoint" />
          </mxGeometry>
        </mxCell>
        <mxCell id="9_dAPzWOalVGL8R8S1VZ-29" value="&amp;lt;&amp;lt; extend &amp;gt;&amp;gt;" style="html=1;verticalAlign=bottom;endArrow=open;dashed=1;endSize=8;curved=0;rounded=0;exitX=0;exitY=0.5;exitDx=0;exitDy=0;entryX=1;entryY=0.5;entryDx=0;entryDy=0;" edge="1" parent="1" source="9_dAPzWOalVGL8R8S1VZ-16" target="pl-_Bf_hWxf6yMwBalIJ-11">
          <mxGeometry relative="1" as="geometry">
            <mxPoint x="-386" y="640" as="sourcePoint" />
            <mxPoint x="-466" y="640" as="targetPoint" />
          </mxGeometry>
        </mxCell>
        <mxCell id="9_dAPzWOalVGL8R8S1VZ-31" value="Airline" style="shape=umlActor;verticalLabelPosition=bottom;verticalAlign=top;html=1;outlineConnect=0;" vertex="1" parent="1">
          <mxGeometry x="-949" y="646" width="30" height="60" as="geometry" />
        </mxCell>
        <mxCell id="9_dAPzWOalVGL8R8S1VZ-32" value="" style="endArrow=none;html=1;rounded=0;entryX=0.242;entryY=0.913;entryDx=0;entryDy=0;entryPerimeter=0;exitX=1;exitY=0.3333333333333333;exitDx=0;exitDy=0;exitPerimeter=0;" edge="1" parent="1" source="9_dAPzWOalVGL8R8S1VZ-31" target="pl-_Bf_hWxf6yMwBalIJ-5">
          <mxGeometry width="50" height="50" relative="1" as="geometry">
            <mxPoint x="-451" y="645" as="sourcePoint" />
            <mxPoint x="-746" y="372" as="targetPoint" />
          </mxGeometry>
        </mxCell>
        <mxCell id="9_dAPzWOalVGL8R8S1VZ-33" value="" style="endArrow=none;html=1;rounded=0;exitX=1;exitY=0.3333333333333333;exitDx=0;exitDy=0;exitPerimeter=0;entryX=0;entryY=1;entryDx=0;entryDy=0;" edge="1" parent="1" source="9_dAPzWOalVGL8R8S1VZ-31" target="pl-_Bf_hWxf6yMwBalIJ-6">
          <mxGeometry width="50" height="50" relative="1" as="geometry">
            <mxPoint x="-451" y="645" as="sourcePoint" />
            <mxPoint x="-763" y="490" as="targetPoint" />
          </mxGeometry>
        </mxCell>
        <mxCell id="9_dAPzWOalVGL8R8S1VZ-34" value="" style="endArrow=none;html=1;rounded=0;exitX=1;exitY=0.3333333333333333;exitDx=0;exitDy=0;exitPerimeter=0;entryX=0;entryY=1;entryDx=0;entryDy=0;" edge="1" parent="1" source="9_dAPzWOalVGL8R8S1VZ-31" target="pl-_Bf_hWxf6yMwBalIJ-9">
          <mxGeometry width="50" height="50" relative="1" as="geometry">
            <mxPoint x="-451" y="645" as="sourcePoint" />
            <mxPoint x="-401" y="595" as="targetPoint" />
          </mxGeometry>
        </mxCell>
        <mxCell id="9_dAPzWOalVGL8R8S1VZ-35" value="" style="endArrow=none;html=1;rounded=0;entryX=0;entryY=0.5;entryDx=0;entryDy=0;exitX=1;exitY=0.3333333333333333;exitDx=0;exitDy=0;exitPerimeter=0;" edge="1" parent="1" source="9_dAPzWOalVGL8R8S1VZ-31" target="pl-_Bf_hWxf6yMwBalIJ-10">
          <mxGeometry width="50" height="50" relative="1" as="geometry">
            <mxPoint x="-918" y="670" as="sourcePoint" />
            <mxPoint x="-401" y="595" as="targetPoint" />
          </mxGeometry>
        </mxCell>
        <mxCell id="9_dAPzWOalVGL8R8S1VZ-36" value="" style="endArrow=none;html=1;rounded=0;exitX=1;exitY=0.3333333333333333;exitDx=0;exitDy=0;exitPerimeter=0;entryX=0;entryY=0.5;entryDx=0;entryDy=0;" edge="1" parent="1" source="9_dAPzWOalVGL8R8S1VZ-31" target="pl-_Bf_hWxf6yMwBalIJ-11">
          <mxGeometry width="50" height="50" relative="1" as="geometry">
            <mxPoint x="-451" y="645" as="sourcePoint" />
            <mxPoint x="-401" y="595" as="targetPoint" />
          </mxGeometry>
        </mxCell>
      </root>
    </mxGraphModel>
  </diagram>
</mxfile>
